<?xml version="1.0" encoding="UTF-8" standalone="no"?>
<!-- Generator: Adobe Illustrator 18.0.0, SVG Export Plug-In . SVG Version: 6.00 Build 0)  -->

<svg
   xmlns:dc="http://purl.org/dc/elements/1.1/"
   xmlns:cc="http://creativecommons.org/ns#"
   xmlns:rdf="http://www.w3.org/1999/02/22-rdf-syntax-ns#"
   xmlns:svg="http://www.w3.org/2000/svg"
   xmlns="http://www.w3.org/2000/svg"
   xmlns:sodipodi="http://sodipodi.sourceforge.net/DTD/sodipodi-0.dtd"
   xmlns:inkscape="http://www.inkscape.org/namespaces/inkscape"
   version="1.1"
   id="Capa_1"
   x="0px"
   y="0px"
   viewBox="0 0 200 200"
   xml:space="preserve"
   inkscape:version="0.91 r13725"
   sodipodi:docname="profileLogo.svg"
   width="200"
   height="200"><metadata
     id="metadata47"><rdf:RDF><cc:Work
         rdf:about=""><dc:format>image/svg+xml</dc:format><dc:type
           rdf:resource="http://purl.org/dc/dcmitype/StillImage" /><dc:title /></cc:Work></rdf:RDF></metadata><defs
     id="defs45" /><sodipodi:namedview
     pagecolor="#ffffff"
     bordercolor="#666666"
     borderopacity="1"
     objecttolerance="10"
     gridtolerance="10"
     guidetolerance="10"
     inkscape:pageopacity="0"
     inkscape:pageshadow="2"
     inkscape:window-width="1857"
     inkscape:window-height="1056"
     id="namedview43"
     showgrid="false"
     inkscape:zoom="1.0007336"
     inkscape:cx="-411.31937"
     inkscape:cy="95.544879"
     inkscape:window-x="63"
     inkscape:window-y="24"
     inkscape:window-maximized="1"
     inkscape:current-layer="Capa_1" /><g
     id="g13"
     transform="translate(0,-271.65399)" /><g
     id="g15"
     transform="translate(0,-271.65399)" /><g
     id="g17"
     transform="translate(0,-271.65399)" /><g
     id="g19"
     transform="translate(0,-271.65399)" /><g
     id="g21"
     transform="translate(0,-271.65399)" /><g
     id="g23"
     transform="translate(0,-271.65399)" /><g
     id="g25"
     transform="translate(0,-271.65399)" /><g
     id="g27"
     transform="translate(0,-271.65399)" /><g
     id="g29"
     transform="translate(0,-271.65399)" /><g
     id="g31"
     transform="translate(0,-271.65399)" /><g
     id="g33"
     transform="translate(0,-271.65399)" /><g
     id="g35"
     transform="translate(0,-271.65399)" /><g
     id="g37"
     transform="translate(0,-271.65399)" /><g
     id="g39"
     transform="translate(0,-271.65399)" /><g
     id="g41"
     transform="translate(0,-271.65399)" /><circle
     style="opacity:1;fill:#00ffff;fill-opacity:1;stroke:none;stroke-opacity:1"
     id="path4152"
     cx="99.928131"
     cy="100.07184"
     r="100" /><circle
     style="opacity:1;fill:#3e3e3e;fill-opacity:1;stroke:none;stroke-opacity:1"
     id="path4154"
     cx="100.48996"
     cy="100.63361"
     r="88.202248" /><g
     id="g3"
     style="fill:#00ffff"
     transform="matrix(0.32147779,0,0,0.32147779,24.115188,22.743973)"><path
       d="m 370.756,258.645 -22.294,-6.646 c 0.195,3.559 -0.586,7.109 -2.753,9.955 l -3.676,4.84 -44.713,58.875 c -2.822,3.73 -7.295,5.959 -12.519,5.959 -0.016,0 -0.024,0 -0.039,0 -4.912,-0.181 -9.431,-2.745 -12.105,-6.874 l -6.499,-10.041 -13.943,12.325 -33.155,0 -13.738,-12.138 -6.38,9.862 c -2.667,4.112 -7.188,6.684 -12.653,6.88 -4.691,0 -9.18,-2.236 -12.011,-5.966 l -44.697,-58.875 -3.676,-4.839 c -2.165,-2.854 -2.948,-6.404 -2.752,-9.955 l -22.255,6.638 C 87.683,262.586 78.62,274.738 78.62,288.533 l 0,25.914 c 0,86.822 70.385,157.208 157.208,157.208 86.822,0 157.207,-70.385 157.207,-157.208 l 0,-25.914 c -0.001,-13.795 -9.064,-25.947 -22.279,-29.888 z M 236.139,461.84 c -4.831,0 -9.141,-2.674 -11.556,-6.771 -0.298,-0.501 -0.673,-0.938 -0.908,-1.486 l -18.063,-42.649 11.135,-74.497 38.786,0 11.135,74.497 -18.063,42.649 c -0.227,0.532 -0.602,0.962 -0.892,1.454 -2.408,4.122 -6.725,6.803 -11.574,6.803 z"
       id="path5"
       style="fill:#00ffff"
       inkscape:connector-curvature="0" /><path
       d="m 155.143,234.38 -20.846,12.386 c -1.73,1.025 -2.94,2.745 -3.325,4.724 -0.383,1.978 0.087,4.018 1.307,5.621 l 48.38,63.723 c 1.337,1.768 3.432,2.8 5.629,2.8 0.087,0 0.181,-0.007 0.266,-0.007 2.299,-0.086 4.418,-1.29 5.669,-3.222 l 25.665,-39.663 C 194.64,275.199 172.926,259.044 155.143,234.38 Z"
       id="path7"
       style="fill:#00ffff"
       inkscape:connector-curvature="0" /><path
       d="m 316.487,234.397 c -17.781,24.663 -39.497,40.818 -62.76,46.355 l 25.656,39.654 c 1.252,1.931 3.363,3.135 5.677,3.222 0.087,0 0.179,0.007 0.266,0.007 2.197,0 4.277,-1.032 5.615,-2.8 l 48.389,-63.723 c 1.22,-1.603 1.689,-3.643 1.313,-5.621 -0.391,-1.979 -1.611,-3.699 -3.331,-4.724 l -20.825,-12.37 z"
       id="path9"
       style="fill:#00ffff"
       inkscape:connector-curvature="0" /><path
       d="m 150.92,195.611 c 16.461,35.33 46.771,71.504 84.907,71.504 38.113,0 68.399,-36.12 84.875,-71.426 13.066,-2.558 25.438,-14.709 31.224,-31.302 7.773,-22.357 1.354,-44.338 -14.528,-50.93 3.518,-25.515 4.598,-74.115 -55.481,-91.412 0,0 -11.158,-17.672 -36.98,-21.386 -6.732,-0.97 -14.466,-0.938 -23.279,0.57 -13.105,2.244 -28.495,7.725 -46.55,18.556 -43.618,26.173 -46.676,70.699 -40.71,93.422 0.016,0.046 0.055,0.079 0.063,0.133 -7.929,3.23 -13.918,10.604 -16.522,20.434 -2.463,9.329 -1.814,20.206 1.821,30.614 5.716,16.436 17.898,28.518 31.16,31.223 z m -17.491,-57.748 c 0.781,-2.98 2.799,-8.219 7.452,-9.838 0.493,-0.171 4.133,-1.154 5.528,-1.47 35.595,-8.057 119.774,-23.358 130.12,-66.178 0,0 9.622,40.445 46.363,63.565 4.215,2.652 7.389,3.911 7.891,4.082 7.101,2.471 11.314,15.858 6.022,31.099 -4.771,13.668 -14.46,21.043 -21.34,21.043 -0.008,0 -0.008,0 -0.008,0 -3.285,-0.04 -6.195,1.845 -7.492,4.808 -13.934,31.967 -40.202,66.125 -72.137,66.125 -31.936,0 -58.203,-34.158 -72.137,-66.125 -1.274,-2.924 -4.497,-4.808 -7.687,-4.808 -6.692,0 -16.365,-7.375 -21.12,-21.043 -2.559,-7.333 -3.091,-15.083 -1.455,-21.26 z"
       id="path11"
       style="fill:#00ffff"
       inkscape:connector-curvature="0" /></g></svg>